<svg width="143" height="155" viewBox="0 0 143 155" fill="none" xmlns="http://www.w3.org/2000/svg">
<g id="undraw_files-sent_o4sc 1" clip-path="url(#clip0_346_1991)">
<path id="Vector" d="M70.0146 118.916C69.8504 118.917 69.6879 118.856 69.5367 118.736C69.3855 118.617 69.2489 118.441 69.1349 118.221L67.2075 114.498C66.9827 114.063 66.8597 113.479 66.8654 112.875C66.8711 112.271 67.0051 111.695 67.238 111.275L78.0526 92.0441C78.4399 91.3601 78.9561 90.9881 79.4894 91.0086C80.0227 91.0292 80.5302 91.4407 80.902 92.154L81.726 93.7458C81.9101 94.0995 82.0547 94.5177 82.1515 94.9763C82.2483 95.4349 82.2954 95.9247 82.29 96.4174C82.2846 96.9136 82.2268 97.4029 82.1199 97.8573C82.013 98.3118 81.8591 98.7224 81.667 99.0659L70.8627 118.279C70.6351 118.689 70.331 118.917 70.0146 118.916Z" fill="#40C1BD"/>
<path id="Vector_2" d="M96.5787 118.916C96.2621 118.917 95.9578 118.688 95.7301 118.278L84.9262 99.0658C84.7341 98.7224 84.5802 98.3117 84.4733 97.8573C84.3664 97.4028 84.3086 96.9135 84.3031 96.4174C84.2978 95.9247 84.3448 95.4348 84.4416 94.9763C84.5385 94.5177 84.6831 94.0995 84.8671 93.7458L85.6912 92.154C86.063 91.4406 86.5705 91.0291 87.1038 91.0085C87.6371 90.9879 88.1533 91.36 88.5406 92.0441L99.3547 111.274C99.5878 111.695 99.7219 112.27 99.7277 112.874C99.7335 113.478 99.6105 114.062 99.3857 114.498L97.4583 118.221C97.3443 118.441 97.2077 118.617 97.0566 118.736C96.9054 118.856 96.7429 118.917 96.5787 118.916Z" fill="#40C1BD"/>
<path id="Vector_3" d="M40.6144 128.673H4.73965e-06V112.002C-0.000581077 111.604 0.053147 111.212 0.156135 110.863C0.259124 110.515 0.407986 110.221 0.588713 110.009L19.6313 87.555C19.8338 87.3177 20.0681 87.1919 20.3072 87.1919C20.5463 87.1919 20.7806 87.3177 20.983 87.555L40.0257 110.009C40.2064 110.221 40.3552 110.515 40.4582 110.863C40.5612 111.212 40.6149 111.604 40.6144 112.002V128.673Z" fill="#878787"/>
<path id="Vector_4" d="M131.996 142H62.0488V141.299H131.62V89.0566H131.996V142Z" fill="#F6D776"/>
<path id="Vector_5" d="M18.0499 68.3703H17.6738V15.4271H94.0138V16.1284H18.0499V68.3703Z" fill="#F6D776"/>
<path id="Vector_6" d="M34.1429 129.782H6.47158C6.13632 129.781 5.8149 129.533 5.57783 129.091C5.34076 128.649 5.20741 128.049 5.20703 127.424V93.8574C5.20741 93.2322 5.34076 92.6329 5.57783 92.1908C5.8149 91.7488 6.13632 91.5001 6.47158 91.4994H34.1429C34.4782 91.5001 34.7996 91.7487 35.0367 92.1908C35.2737 92.6329 35.4071 93.2322 35.4074 93.8574V127.424C35.4071 128.049 35.2737 128.649 35.0367 129.091C34.7996 129.533 34.4782 129.781 34.1429 129.782Z" fill="#DFDFDF"/>
<path id="Vector_7" d="M16.4394 99.2668H8.25698C8.14942 99.2672 8.04289 99.2279 7.94347 99.1514C7.84406 99.0748 7.7537 98.9625 7.67759 98.8208C7.60148 98.6791 7.5411 98.5108 7.4999 98.3255C7.45871 98.1402 7.4375 97.9417 7.4375 97.7411C7.4375 97.5405 7.45871 97.3419 7.4999 97.1567C7.5411 96.9714 7.60148 96.8031 7.67759 96.6614C7.7537 96.5197 7.84406 96.4073 7.94347 96.3308C8.04289 96.2543 8.14942 96.215 8.25698 96.2153H16.4394C16.5469 96.215 16.6534 96.2543 16.7529 96.3308C16.8523 96.4073 16.9426 96.5197 17.0187 96.6614C17.0948 96.8031 17.1552 96.9714 17.1964 97.1567C17.2376 97.3419 17.2588 97.5405 17.2588 97.7411C17.2588 97.9417 17.2376 98.1402 17.1964 98.3255C17.1552 98.5108 17.0948 98.6791 17.0187 98.8208C16.9426 98.9625 16.8523 99.0748 16.7529 99.1514C16.6534 99.2279 16.5469 99.2672 16.4394 99.2668Z" fill="white"/>
<path id="Vector_8" d="M32.1354 107.034H8.33208C8.09534 107.034 7.8683 106.859 7.7009 106.547C7.5335 106.235 7.43945 105.811 7.43945 105.37C7.43945 104.928 7.5335 104.505 7.7009 104.193C7.8683 103.881 8.09534 103.705 8.33208 103.705H32.1354C32.3719 103.706 32.5986 103.882 32.7657 104.194C32.9328 104.506 33.0267 104.929 33.0267 105.37C33.0267 105.811 32.9328 106.234 32.7657 106.546C32.5986 106.858 32.3719 107.034 32.1354 107.034Z" fill="white"/>
<path id="Vector_9" d="M32.1354 112.86H8.33208C8.09534 112.86 7.8683 112.685 7.7009 112.373C7.5335 112.06 7.43945 111.637 7.43945 111.196C7.43945 110.754 7.5335 110.331 7.7009 110.019C7.8683 109.706 8.09534 109.531 8.33208 109.531H32.1354C32.3721 109.531 32.5991 109.706 32.7665 110.019C32.9339 110.331 33.028 110.754 33.028 111.196C33.028 111.637 32.9339 112.06 32.7665 112.373C32.5991 112.685 32.3721 112.86 32.1354 112.86Z" fill="white"/>
<path id="Vector_10" d="M32.1354 118.686H8.33208C8.09534 118.686 7.8683 118.51 7.7009 118.198C7.5335 117.886 7.43945 117.463 7.43945 117.021C7.43945 116.58 7.5335 116.156 7.7009 115.844C7.8683 115.532 8.09534 115.357 8.33208 115.357H32.1354C32.3719 115.357 32.5986 115.533 32.7657 115.845C32.9328 116.157 33.0267 116.58 33.0267 117.021C33.0267 117.462 32.9328 117.885 32.7657 118.197C32.5986 118.509 32.3719 118.685 32.1354 118.686Z" fill="white"/>
<path id="Vector_11" d="M39.3498 147.536H1.26455C0.929287 147.536 0.607864 147.287 0.370797 146.845C0.133729 146.403 0.000377733 145.804 0 145.178V114.663C0.000377733 114.038 0.133729 113.439 0.370797 112.997C0.607864 112.555 0.929287 112.306 1.26455 112.305L1.29346 112.316L18.0501 125.498C18.7649 126.056 19.5322 126.344 20.3072 126.344C21.0822 126.344 21.8494 126.056 22.5643 125.498L39.3348 112.305H39.3498C39.6851 112.306 40.0065 112.555 40.2436 112.997C40.4806 113.439 40.614 114.038 40.6143 114.663V145.178C40.614 145.804 40.4806 146.403 40.2436 146.845C40.0065 147.287 39.6851 147.536 39.3498 147.536Z" fill="#878787"/>
<path id="Vector_12" d="M132.95 39.3605H115.972C115.627 39.3598 115.297 39.1041 115.053 38.6496C114.809 38.1951 114.672 37.5789 114.672 36.9361V2.42437C114.672 1.78161 114.809 1.16538 115.053 0.71088C115.297 0.256378 115.627 0.000722914 115.972 0H132.95C133.295 0.000717358 133.626 0.256371 133.869 0.710874C134.113 1.16538 134.25 1.78161 134.251 2.42437V36.9361C134.25 37.5789 134.113 38.1951 133.869 38.6496C133.626 39.1041 133.295 39.3598 132.95 39.3605Z" fill="#DFDFDF"/>
<path id="Vector_13" d="M126.221 7.98619H117.808C117.585 7.98619 117.371 7.82091 117.213 7.52672C117.055 7.23253 116.967 6.83352 116.967 6.41747C116.967 6.00142 117.055 5.60241 117.213 5.30822C117.371 5.01403 117.585 4.84875 117.808 4.84875H126.221C126.444 4.84875 126.658 5.01403 126.816 5.30822C126.973 5.60241 127.062 6.00142 127.062 6.41747C127.062 6.83352 126.973 7.23253 126.816 7.52672C126.658 7.82091 126.444 7.98619 126.221 7.98619Z" fill="white"/>
<path id="Vector_14" d="M130.885 15.9723H117.884C117.763 15.9726 117.644 15.9286 117.532 15.8428C117.421 15.7569 117.319 15.6309 117.234 15.472C117.149 15.313 117.081 15.1243 117.035 14.9165C116.989 14.7087 116.965 14.4859 116.965 14.261C116.965 14.0361 116.989 13.8133 117.035 13.6055C117.081 13.3978 117.149 13.209 117.234 13.05C117.319 12.8911 117.421 12.7651 117.532 12.6793C117.644 12.5934 117.763 12.5494 117.884 12.5497H130.885C131.129 12.5503 131.362 12.7309 131.533 13.0518C131.705 13.3726 131.802 13.8076 131.802 14.261C131.802 14.7145 131.705 15.1494 131.533 15.4702C131.362 15.7911 131.129 15.9717 130.885 15.9723Z" fill="white"/>
<path id="Vector_15" d="M130.886 21.962H117.885C117.641 21.962 117.408 21.7817 117.236 21.4607C117.063 21.1398 116.967 20.7045 116.967 20.2506C116.967 19.7968 117.063 19.3615 117.236 19.0405C117.408 18.7196 117.641 18.5393 117.885 18.5393H130.886C131.129 18.5393 131.363 18.7196 131.535 19.0405C131.707 19.3615 131.804 19.7968 131.804 20.2506C131.804 20.7045 131.707 21.1398 131.535 21.4607C131.363 21.7817 131.129 21.962 130.886 21.962Z" fill="white"/>
<path id="Vector_16" d="M130.886 27.9517H117.885C117.641 27.9517 117.408 27.7714 117.236 27.4505C117.063 27.1295 116.967 26.6942 116.967 26.2404C116.967 25.7865 117.063 25.3512 117.236 25.0303C117.408 24.7093 117.641 24.5291 117.885 24.5291H130.886C131.129 24.5291 131.363 24.7093 131.535 25.0303C131.707 25.3512 131.804 25.7865 131.804 26.2404C131.804 26.6942 131.707 27.1295 131.535 27.4505C131.363 27.7714 131.129 27.9517 130.886 27.9517Z" fill="white"/>
<path id="Vector_17" d="M134.497 50.3293L118.681 38.8179C118.36 38.5835 118.102 38.1213 117.963 37.5327C117.825 36.944 117.817 36.277 117.942 35.678L124.672 3.5284C124.797 2.92989 125.045 2.4488 125.361 2.19066C125.677 1.93252 126.034 1.91842 126.355 2.15146L142.172 13.6628C142.493 13.8972 142.751 14.3594 142.889 14.9481C143.028 15.5367 143.035 16.2037 142.91 16.8028L136.181 48.9523C136.055 49.5509 135.807 50.0319 135.491 50.2901C135.176 50.5482 134.818 50.5623 134.497 50.3293Z" fill="#DFDFDF"/>
<path id="Vector_18" d="M134.347 16.5393L126.51 10.8354C126.302 10.684 126.135 10.385 126.045 10.004C125.956 9.62308 125.951 9.19144 126.032 8.804C126.113 8.41655 126.274 8.10502 126.478 7.93789C126.682 7.77076 126.914 7.76172 127.121 7.91274L134.958 13.6166C135.166 13.7679 135.333 14.0669 135.423 14.4479C135.512 14.8289 135.517 15.2607 135.436 15.6483C135.355 16.0359 135.195 16.3475 134.99 16.5146C134.786 16.6817 134.554 16.6905 134.347 16.5393Z" fill="white"/>
<path id="Vector_19" d="M137.134 27.1419L125.023 18.3269C124.796 18.1616 124.614 17.8354 124.517 17.4198C124.419 17.0043 124.414 16.5335 124.502 16.1109C124.591 15.6883 124.766 15.3485 124.988 15.1662C125.211 14.9838 125.464 14.9739 125.69 15.1385L137.802 23.9535C137.914 24.035 138.017 24.157 138.104 24.3126C138.191 24.4682 138.261 24.6543 138.31 24.8602C138.358 25.0661 138.384 25.2879 138.387 25.5127C138.389 25.7376 138.368 25.9612 138.324 26.1708C138.28 26.3803 138.215 26.5716 138.131 26.7339C138.048 26.8961 137.948 27.026 137.837 27.1162C137.727 27.2064 137.608 27.2551 137.487 27.2595C137.367 27.2639 137.247 27.2239 137.134 27.1419Z" fill="white"/>
<path id="Vector_20" d="M135.967 32.7216L123.856 23.9066C123.743 23.8249 123.641 23.7027 123.554 23.5471C123.467 23.3915 123.397 23.2055 123.349 22.9997C123.3 22.7939 123.274 22.5723 123.272 22.3476C123.269 22.1229 123.29 21.8995 123.334 21.6902C123.378 21.4808 123.444 21.2896 123.527 21.1275C123.611 20.9653 123.71 20.8354 123.821 20.7451C123.931 20.6549 124.05 20.6061 124.17 20.6014C124.291 20.5968 124.411 20.6365 124.523 20.7182L136.635 29.5332C136.861 29.6982 137.044 30.0245 137.141 30.4401C137.239 30.8558 137.244 31.3268 137.156 31.7496C137.067 32.1724 136.892 32.5124 136.669 32.6947C136.447 32.8769 136.194 32.8866 135.967 32.7216Z" fill="white"/>
<path id="Vector_21" d="M134.799 38.3012L122.687 29.4862C122.46 29.3209 122.278 28.9947 122.181 28.5791C122.083 28.1636 122.078 27.6928 122.166 27.2702C122.255 26.8477 122.43 26.5078 122.652 26.3255C122.875 26.1431 123.128 26.1332 123.354 26.2978L135.466 35.1128C135.693 35.2778 135.875 35.604 135.973 36.0197C136.07 36.4354 136.076 36.9064 135.987 37.3292C135.899 37.752 135.724 38.092 135.501 38.2742C135.278 38.4565 135.025 38.4662 134.799 38.3012Z" fill="white"/>
<path id="Vector_22" d="M139.528 27.8091H121.23L118.321 19.179C118.21 18.8522 118.058 18.5829 117.876 18.3962C117.695 18.2095 117.492 18.1116 117.285 18.1116H112.913C112.752 18.1116 112.593 18.1706 112.445 18.2853C112.296 18.3999 112.161 18.568 112.048 18.7799C111.934 18.9918 111.844 19.2433 111.783 19.5201C111.721 19.797 111.689 20.0937 111.689 20.3933V61.1799C111.689 61.4796 111.721 61.7763 111.783 62.0531C111.844 62.33 111.934 62.5815 112.048 62.7934C112.161 63.0053 112.296 63.1733 112.445 63.288C112.593 63.4027 112.752 63.4617 112.913 63.4617H139.528C139.689 63.4617 139.848 63.4027 139.996 63.288C140.145 63.1733 140.28 63.0053 140.393 62.7934C140.507 62.5815 140.597 62.33 140.658 62.0531C140.72 61.7763 140.752 61.4796 140.752 61.1799V30.0908C140.752 29.7912 140.72 29.4945 140.658 29.2176C140.597 28.9408 140.507 28.6893 140.393 28.4774C140.28 28.2655 140.145 28.0974 139.996 27.9828C139.848 27.8681 139.689 27.8091 139.528 27.8091Z" fill="#878787"/>
<path id="Vector_23" d="M78.1145 125.575H89.2083C89.5075 125.575 89.7944 125.797 90.006 126.191C90.2176 126.586 90.3364 127.121 90.3364 127.679V136.882C90.3364 140.183 89.6332 143.349 88.3814 145.684C87.1295 148.018 85.4317 149.329 83.6614 149.329C81.8911 149.329 80.1932 148.018 78.9414 145.684C77.6896 143.349 76.9863 140.183 76.9863 136.882V127.679C76.9863 127.121 77.1052 126.586 77.3168 126.191C77.5283 125.797 77.8153 125.575 78.1145 125.575Z" fill="#F6D776"/>
<path id="Vector_24" d="M89.9647 142.035H77.355C77.031 142.035 76.7203 141.794 76.4912 141.367C76.2621 140.94 76.1332 140.361 76.1328 139.756V101.559C76.1328 97.8362 76.9258 94.2662 78.3374 91.634C79.749 89.0018 81.6636 87.5231 83.6599 87.5231C85.6562 87.5231 87.5707 89.0018 88.9823 91.634C90.3939 94.2662 91.1869 97.8362 91.1869 101.559V139.756C91.1865 140.361 91.0577 140.94 90.8285 141.367C90.5994 141.794 90.2888 142.035 89.9647 142.035Z" fill="#F6D776"/>
<path id="Vector_25" d="M83.5866 84.4382C89.1444 84.4382 93.6498 76.037 93.6498 65.6735C93.6498 55.3101 89.1444 46.9088 83.5866 46.9088C78.0289 46.9088 73.5234 55.3101 73.5234 65.6735C73.5234 76.037 78.0289 84.4382 83.5866 84.4382Z" fill="#40C1BD"/>
<path id="Vector_26" d="M84.7593 71.9387C84.1376 71.9064 83.3639 71.8658 82.7682 71.0543C82.5907 70.8027 82.4449 70.4817 82.3409 70.1139C82.237 69.7461 82.1774 69.3404 82.1664 68.9251C82.1557 68.63 82.1816 68.3343 82.2423 68.0611C82.303 67.7878 82.3967 67.5444 82.5162 67.3499C82.8275 66.8596 83.282 66.744 83.7719 67.0128L83.2644 60.0965L83.637 60.0013L84.2337 68.1323L83.9226 67.8661C83.5618 67.5576 83.0667 67.4008 82.759 67.8854C82.6834 68.0121 82.6246 68.1696 82.587 68.3456C82.5494 68.5216 82.5341 68.7115 82.5423 68.9003C82.5514 69.2094 82.5961 69.5112 82.6733 69.7851C82.7506 70.0591 82.8586 70.2988 82.99 70.488C83.4536 71.1197 84.0703 71.2012 84.7699 71.2379L84.7593 71.9387Z" fill="#F6D776"/>
<path id="Vector_27" d="M81.4219 60.693H79.3965V61.3942H81.4219V60.693Z" fill="#F6D776"/>
<path id="Vector_28" d="M87.8164 60.693H85.791V61.3942H87.8164V60.693Z" fill="#F6D776"/>
<path id="Vector_29" d="M93.4688 155C93.3747 155 93.281 154.98 93.1893 154.94L70.6618 145.157C70.5055 145.089 70.3579 144.965 70.2274 144.791C70.0969 144.616 69.9861 144.396 69.9013 144.142C69.8165 143.888 69.7594 143.605 69.7332 143.31C69.707 143.014 69.7122 142.712 69.7486 142.421L70.3781 137.381C70.4517 136.792 70.6476 136.282 70.9228 135.963C71.198 135.643 71.53 135.541 71.8457 135.678L94.3732 145.461C94.5295 145.528 94.6771 145.653 94.8076 145.827C94.9381 146.002 95.0489 146.222 95.1337 146.476C95.2185 146.73 95.2756 147.013 95.3018 147.308C95.328 147.604 95.3227 147.906 95.2863 148.197L94.6569 153.237C94.5943 153.737 94.4429 154.184 94.2273 154.504C94.0116 154.824 93.7444 154.999 93.4688 155Z" fill="#F6D776"/>
<path id="Vector_30" d="M73.4841 152.94C73.1875 152.939 72.9013 152.737 72.6785 152.372C72.4557 152.007 72.3116 151.503 72.2729 150.955L71.9144 145.824C71.8729 145.224 71.9606 144.619 72.1582 144.14C72.3558 143.661 72.6472 143.348 72.9684 143.269L95.9049 137.697C96.2263 137.619 96.5512 137.782 96.8081 138.151C97.065 138.519 97.2328 139.063 97.2747 139.663L97.6333 144.794C97.6751 145.394 97.5876 145.999 97.3899 146.478C97.1922 146.957 96.9006 147.27 96.5792 147.348L73.6427 152.921C73.5901 152.933 73.5372 152.94 73.4841 152.94Z" fill="#F6D776"/>
<path id="Vector_31" d="M76.9385 51.0098C75.3075 50.663 74.0443 47.749 73.9056 44.7923C73.7405 41.2749 74.8391 37.9341 76.3462 35.9603C77.9223 33.8961 79.886 33.0341 81.7859 32.8444C85.4922 32.5005 89.1347 34.7392 92.005 39.1252C93.4286 41.33 94.7582 44.1386 95.2621 47.531C95.6998 50.4772 95.3436 53.8148 94.0729 55.8782C93.7585 56.3839 93.3914 56.7625 92.9946 56.9903C92.5979 57.2181 92.1801 57.2901 91.7676 57.2017C90.7816 57.0108 89.8719 56.044 89.0844 54.9764C87.5525 52.8995 86.295 50.0063 84.4287 48.921C83.0603 48.1252 81.2845 48.8257 80.4482 51.1332C80.2585 51.6614 80.1355 52.2631 80.0886 52.8928C80.0713 53.0271 80.0821 53.1687 80.1186 53.2888C80.1552 53.4089 80.2149 53.4986 80.2856 53.5398C80.3577 53.576 80.4346 53.5577 80.4995 53.489C80.5645 53.4202 80.6123 53.3065 80.6325 53.1724C80.8521 50.266 82.7686 49.1815 84.1134 49.8453C86.0743 50.813 87.3906 54.0758 88.9995 56.1488C89.8453 57.2387 90.8074 58.1102 91.8448 58.2666C92.7391 58.3974 93.6267 57.889 94.3274 56.8444C95.7018 54.8207 96.2274 51.34 95.9235 48.2061C95.5716 44.5771 94.2617 41.4668 92.8244 39.0588C89.9107 34.2287 86.128 31.623 82.2301 31.761C80.2419 31.8461 78.1675 32.6114 76.4547 34.5709C74.7933 36.4715 73.5092 39.6513 73.3414 43.3475C73.1937 46.6008 74.1298 50.0037 75.7366 51.429C76.1155 51.7636 76.5217 51.9774 76.9385 52.0616C77.2986 52.1382 77.2957 51.0857 76.9385 51.0098Z" fill="#F6D776"/>
<path id="Vector_32" d="M83.6655 131.94C87.2001 131.94 90.0654 126.597 90.0654 120.006C90.0654 113.415 87.2001 108.072 83.6655 108.072C80.1309 108.072 77.2656 113.415 77.2656 120.006C77.2656 126.597 80.1309 131.94 83.6655 131.94Z" fill="#DFDFDF"/>
<path id="Vector_33" d="M83.1327 125.283L81.1016 120.412L82.2828 118.699L83.2443 121.005L86.4935 114.61L87.5799 116.529L83.1327 125.283Z" fill="#40C1BD"/>
<path id="Vector_34" d="M90.8813 127.677C90.8387 127.677 90.7961 127.673 90.7537 127.665C90.5939 127.635 90.439 127.546 90.2977 127.404C90.1565 127.261 90.0317 127.068 89.9308 126.835L88.1801 122.82C87.9756 122.351 87.8794 121.75 87.9127 121.148C87.946 120.547 88.1059 119.995 88.3574 119.614L94.5522 109.952C94.8039 109.571 95.1263 109.391 95.4489 109.453C95.7714 109.515 96.0677 109.813 96.2726 110.281L98.0232 114.296C98.2277 114.765 98.3239 115.367 98.2906 115.968C98.2574 116.569 98.0974 117.121 97.8459 117.503L91.6511 127.164C91.434 127.496 91.162 127.677 90.8813 127.677Z" fill="#40C1BD"/>
<path id="Vector_35" d="M75.7126 127.677C75.4324 127.677 75.1608 127.497 74.9439 127.166L68.7471 117.501C68.4959 117.119 68.3363 116.567 68.3033 115.967C68.2702 115.366 68.3664 114.765 68.5707 114.296L70.3214 110.281C70.5261 109.813 70.8221 109.515 71.1444 109.453C71.4667 109.391 71.7891 109.57 72.0407 109.95L78.2375 119.615C78.4886 119.997 78.6483 120.549 78.6813 121.15C78.7144 121.75 78.6182 122.351 78.4139 122.82L76.6632 126.835C76.5622 127.068 76.4375 127.261 76.2963 127.404C76.155 127.546 76 127.635 75.8403 127.665C75.7978 127.673 75.7552 127.677 75.7126 127.677Z" fill="#40C1BD"/>
</g>
<defs>
<clipPath id="clip0_346_1991">
<rect width="143" height="155" fill="white"/>
</clipPath>
</defs>
</svg>
