<svg width="143" height="155" viewBox="0 0 143 155" fill="none" xmlns="http://www.w3.org/2000/svg">
<g id="undraw_group-chat_4xw0 1" clip-path="url(#clip0_346_2033)">
<path id="Vector" d="M21.1991 109.875C21.0818 109.609 20.927 109.384 20.7455 109.217C20.564 109.051 20.3604 108.945 20.1489 108.909C19.9374 108.873 19.7232 108.907 19.5214 109.008C19.3195 109.11 19.135 109.276 18.9808 109.496L14.3828 105.938L14.6686 109.947L18.9911 112.711C19.2547 113.075 19.5983 113.281 19.9566 113.291C20.3149 113.301 20.6631 113.113 20.9353 112.763C21.2075 112.414 21.3847 111.927 21.4333 111.394C21.4819 110.862 21.3986 110.321 21.1991 109.875Z" fill="#A0616A"/>
<rect id="Rectangle 34624314" x="21.1855" y="50.6123" width="90.037" height="92.7891" fill="white"/>
<rect id="Rectangle 34624315" x="86.8594" y="64.3197" width="49.7852" height="21.0884" fill="white"/>
<path id="Vector_2" d="M17.1127 111.488C17.0295 111.546 16.9392 111.576 16.8477 111.577C16.7562 111.579 16.6655 111.551 16.5815 111.497L12.2141 108.657C10.7207 107.686 9.51347 105.935 8.81682 103.729L6.52077 96.4636C6.35132 96.1372 6.22645 95.764 6.15329 95.3652C6.08013 94.9665 6.06011 94.55 6.0944 94.1396C6.12868 93.7292 6.21658 93.333 6.35308 92.9736C6.48957 92.6142 6.67199 92.2987 6.88989 92.045C7.10779 91.7914 7.3569 91.6047 7.62298 91.4955C7.88906 91.3863 8.16689 91.3568 8.44058 91.4087C8.71427 91.4606 8.97845 91.5928 9.21801 91.7979C9.45758 92.003 9.66783 92.2768 9.83674 92.6038L13.8726 103.83L17.5993 108.05C17.7059 108.171 17.7852 108.339 17.8263 108.53C17.8673 108.721 17.8683 108.926 17.829 109.118L17.4632 110.89C17.4239 111.079 17.347 111.247 17.2426 111.37C17.2026 111.417 17.159 111.457 17.1127 111.488Z" fill="#C4ECEB"/>
<path id="Vector_3" d="M6.41965 87.9186C8.38378 87.9186 9.97603 85.5315 9.97603 82.5869C9.97603 79.6423 8.38378 77.2552 6.41965 77.2552C4.45552 77.2552 2.86328 79.6423 2.86328 82.5869C2.86328 85.5315 4.45552 87.9186 6.41965 87.9186Z" fill="#A0616A"/>
<path id="Vector_4" d="M7.86176 152.529L9.63683 152.529L10.4814 142.263L7.86133 142.264L7.86176 152.529Z" fill="#A0616A"/>
<path id="Vector_5" d="M13.0605 155L7.4814 155L7.4813 151.768L10.9049 151.768C11.4766 151.768 12.0249 152.109 12.4291 152.715C12.8334 153.321 13.0605 154.143 13.0605 155Z" fill="#40C1BD"/>
<path id="Vector_6" d="M2.06879 152.529L3.84386 152.529L4.68847 142.263L2.06836 142.264L2.06879 152.529Z" fill="#A0616A"/>
<path id="Vector_7" d="M7.26758 155L1.68843 155L1.68833 151.768L5.1119 151.768C5.68359 151.768 6.23188 152.109 6.63615 152.715C7.04042 153.321 7.26755 154.143 7.26758 155Z" fill="#40C1BD"/>
<path id="Vector_8" d="M1.44848 149.591C1.38732 149.486 1.34179 149.363 1.31494 149.229C1.28809 149.096 1.28055 148.956 1.29283 148.818L4.40084 113.872L12.1227 115.838L12.9468 115.096L10.8157 148.254C10.798 148.478 10.7293 148.685 10.6213 148.842C10.5132 148.999 10.3724 149.095 10.2226 149.114L7.88447 149.406C7.79151 149.418 7.69797 149.4 7.61017 149.352C7.52237 149.305 7.44236 149.23 7.37555 149.133C7.30874 149.035 7.2567 148.917 7.22293 148.787C7.18916 148.656 7.17446 148.516 7.17982 148.377L7.78517 132.586C7.78624 132.559 7.78063 132.533 7.76943 132.512C7.75823 132.491 7.74224 132.477 7.72455 132.473C7.70686 132.468 7.68872 132.474 7.67366 132.488C7.65859 132.503 7.64766 132.525 7.64299 132.551L4.64813 149.201C4.61068 149.409 4.5288 149.592 4.41512 149.722C4.30143 149.853 4.16225 149.924 4.01902 149.924H1.93873C1.84588 149.924 1.75411 149.894 1.66955 149.837C1.585 149.779 1.50963 149.695 1.44848 149.591Z" fill="#40C1BD"/>
<path id="Vector_9" d="M6.79727 116.318C6.70864 116.197 6.5947 116.127 6.47524 116.12C6.35578 116.112 6.23835 116.168 6.14335 116.277L4.59954 118.077C4.51552 118.175 4.41671 118.241 4.31177 118.269C4.20683 118.296 4.09897 118.285 3.99766 118.236C3.89634 118.186 3.80467 118.1 3.73068 117.985C3.65669 117.87 3.60265 117.73 3.5733 117.576C2.81605 113.6 1.1004 103.593 1.52305 96.5487C1.76263 92.5561 4.06238 89.5217 6.6496 89.7763C8.41839 89.9531 9.58204 91.4828 10.1082 94.3228C11.4002 101.296 12.82 114.086 13.0915 116.58C13.113 116.773 13.0949 116.972 13.0397 117.15C12.9845 117.328 12.8947 117.476 12.7822 117.576C12.0517 118.233 11.2172 118.586 10.3652 118.596C9.3344 118.596 8.09839 118.058 6.79727 116.318Z" fill="#C4ECEB"/>
<path id="Vector_10" d="M7.37907 118.798C7.39636 118.48 7.36692 118.16 7.29282 117.861C7.21873 117.562 7.10178 117.291 6.95022 117.067C6.79865 116.843 6.61616 116.671 6.4156 116.564C6.21503 116.457 6.00127 116.418 5.78937 116.448L3.63597 109.394L2.21094 112.813L4.47432 118.987C4.53192 119.517 4.71727 119.997 4.99526 120.336C5.27324 120.676 5.62454 120.85 5.98259 120.827C6.34063 120.803 6.68056 120.584 6.93794 120.21C7.19532 119.836 7.35228 119.334 7.37907 118.798Z" fill="#A0616A"/>
<path id="Vector_11" d="M3.49989 116.287C3.41087 116.255 3.32734 116.195 3.25471 116.112C3.18209 116.028 3.122 115.923 3.07836 115.802L0.810956 109.527C0.0355352 107.381 -0.193669 104.887 0.165979 102.507L1.3502 94.6652C1.35127 94.2516 1.4067 93.8425 1.51331 93.4611C1.61992 93.0797 1.77562 92.7336 1.97151 92.4425C2.1674 92.1514 2.39965 91.921 2.65497 91.7645C2.91028 91.608 3.18367 91.5285 3.45949 91.5306C3.73532 91.5326 4.00817 91.6161 4.26246 91.7763C4.51674 91.9365 4.74747 92.1703 4.94146 92.4642C5.13545 92.7582 5.28889 93.1066 5.393 93.4895C5.49712 93.8724 5.54988 94.2824 5.54826 94.6959L4.10297 107.263L5.29808 114.032C5.33206 114.226 5.32544 114.431 5.27912 114.619C5.23281 114.808 5.14902 114.97 5.0391 115.085L4.02219 116.14C3.9131 116.253 3.7836 116.314 3.65097 116.314C3.60008 116.314 3.54937 116.305 3.49989 116.287Z" fill="#C4ECEB"/>
<path id="Vector_12" opacity="0.2" d="M5.26021 99.9958L3.95703 108.245L5.8394 115.191L4.53622 108.462L5.26021 99.9958Z" fill="black"/>
<path id="Vector_13" d="M4.39118 86.9712C4.07483 86.98 3.76045 86.8948 3.46621 86.7203C3.33674 86.6455 3.20235 86.5841 3.07313 86.5092C1.93188 85.8482 1.1801 84.026 1.15317 82.1923C1.12625 80.3585 1.75968 78.5787 2.70028 77.4057C3.64087 76.2328 4.85919 75.6306 6.07912 75.4913C7.39319 75.3413 8.87287 75.8409 9.60716 77.4816C9.80262 77.9183 9.93931 78.4481 9.82349 78.9754C9.7888 79.1345 9.72685 79.2772 9.64383 79.3891C9.3159 79.8265 8.98898 79.4977 8.65469 79.4686C8.19521 79.4287 7.78252 79.9862 7.6342 80.6394C7.48587 81.2926 7.55116 82.0117 7.67093 82.6779C7.76216 83.0788 7.81968 83.4952 7.84215 83.9175C7.85181 84.1292 7.82525 84.3411 7.76498 84.5331C7.70471 84.7252 7.61272 84.8909 7.49774 85.0147C7.21062 85.2749 6.83356 85.1243 6.54627 84.8646C6.25899 84.6048 6.01075 84.2436 5.70043 84.0525C5.39011 83.8613 4.9732 83.9037 4.79258 84.3276C4.73518 84.4818 4.69633 84.65 4.6778 84.8244C4.51588 85.9304 4.5531 85.8652 4.39118 86.9712Z" fill="#1F1F1F"/>
<path id="Vector_14" d="M109.661 50.0322H21.7685C21.4337 50.0327 21.1127 50.2322 20.876 50.5871C20.6393 50.942 20.5062 51.4232 20.5059 51.9251V141.214C20.5062 141.716 20.6393 142.197 20.876 142.552C21.1127 142.907 21.4337 143.106 21.7685 143.107H109.661C109.843 143.107 110.023 143.047 110.189 142.933C110.355 142.818 110.502 142.651 110.621 142.442C110.631 142.426 110.64 142.409 110.648 142.39C110.723 142.252 110.784 142.098 110.829 141.932C110.893 141.705 110.925 141.46 110.925 141.214V85.6309H110.564V141.214C110.564 141.478 110.512 141.736 110.415 141.956C110.328 142.15 110.211 142.308 110.073 142.416C109.946 142.515 109.804 142.567 109.661 142.566H21.7685C21.5294 142.566 21.3001 142.423 21.1309 142.17C20.9618 141.916 20.8667 141.572 20.8664 141.214V51.9252C20.8667 51.5666 20.9618 51.2228 21.1309 50.9693C21.3001 50.7158 21.5294 50.5732 21.7685 50.5727H109.661C109.9 50.5727 110.13 50.7151 110.299 50.9687C110.468 51.2223 110.564 51.5663 110.564 51.9252V63.9231H110.925V51.9252C110.924 51.4229 110.791 50.9415 110.554 50.5865C110.317 50.2316 109.996 50.0322 109.661 50.0322Z" fill="#3F3D56"/>
<path id="Vector_15" d="M110.743 57.6198H20.6855V58.1609H110.743V57.6198Z" fill="#3F3D56"/>
<path id="Vector_16" d="M23.7528 55.715C24.3508 55.715 24.8356 54.9881 24.8356 54.0915C24.8356 53.195 24.3508 52.4681 23.7528 52.4681C23.1547 52.4681 22.6699 53.195 22.6699 54.0915C22.6699 54.9881 23.1547 55.715 23.7528 55.715Z" fill="#CCCCCC"/>
<path id="Vector_17" d="M26.8661 55.715C27.4641 55.715 27.9489 54.9881 27.9489 54.0915C27.9489 53.195 27.4641 52.4681 26.8661 52.4681C26.268 52.4681 25.7832 53.195 25.7832 54.0915C25.7832 54.9881 26.268 55.715 26.8661 55.715Z" fill="#CCCCCC"/>
<path id="Vector_18" d="M29.9793 55.715C30.5774 55.715 31.0622 54.9881 31.0622 54.0915C31.0622 53.195 30.5774 52.4681 29.9793 52.4681C29.3813 52.4681 28.8965 53.195 28.8965 54.0915C28.8965 54.9881 29.3813 55.715 29.9793 55.715Z" fill="#CCCCCC"/>
<path id="Vector_19" d="M51.7288 132.163C51.356 132.16 50.9896 132.018 50.6626 131.75C50.3357 131.481 50.0585 131.095 49.8563 130.625C49.6541 130.156 49.5332 129.618 49.5045 129.061C49.4758 128.504 49.5402 127.945 49.692 127.434L52.2717 118.805C50.24 116.111 48.6141 112.8 47.5021 109.091C46.3901 105.382 45.8175 101.36 45.8223 97.2938C45.8223 81.407 54.4436 68.4817 65.0408 68.4817C75.638 68.4817 84.2593 81.407 84.2593 97.2938C84.2593 113.181 75.638 126.106 65.0408 126.106C63.187 126.103 61.3433 125.696 59.5677 124.897L52.9838 131.58C52.6139 131.958 52.1767 132.161 51.7288 132.163ZM65.0408 72.502C61.6111 72.499 58.2658 74.0957 55.4685 77.0707C52.6712 80.0457 50.5606 84.2517 49.4292 89.1056C48.2977 93.9595 48.2016 99.2208 49.154 104.16C50.1065 109.1 52.0603 113.473 54.7448 116.673L55.5575 117.645L52.7818 126.93L59.1516 120.465L59.7805 120.782C62.0526 121.926 64.4635 122.316 66.8462 121.924C69.2288 121.533 71.5262 120.37 73.5791 118.515C75.6319 116.66 77.3913 114.158 78.7351 111.182C80.0789 108.207 80.975 104.829 81.3614 101.282C81.7478 97.7361 81.6152 94.1061 80.9728 90.6442C80.3304 87.1823 79.1935 83.9711 77.641 81.2334C76.0885 78.4956 74.1575 76.2967 71.9818 74.7891C69.8061 73.2814 67.4377 72.501 65.0408 72.502Z" fill="#3F3D56"/>
<path id="Vector_20" d="M65.041 99.9741C66.5221 99.9741 67.7227 98.1741 67.7227 95.9538C67.7227 93.7334 66.5221 91.9335 65.041 91.9335C63.56 91.9335 62.3594 93.7334 62.3594 95.9538C62.3594 98.1741 63.56 99.9741 65.041 99.9741Z" fill="#3F3D56"/>
<path id="Vector_21" d="M57.4434 99.9741C58.9244 99.9741 60.125 98.1741 60.125 95.9538C60.125 93.7334 58.9244 91.9335 57.4434 91.9335C55.9623 91.9335 54.7617 93.7334 54.7617 95.9538C54.7617 98.1741 55.9623 99.9741 57.4434 99.9741Z" fill="#3F3D56"/>
<path id="Vector_22" d="M72.6406 99.9741C74.1217 99.9741 75.3223 98.1741 75.3223 95.9538C75.3223 93.7334 74.1217 91.9335 72.6406 91.9335C71.1596 91.9335 69.959 93.7334 69.959 95.9538C69.959 98.1741 71.1596 99.9741 72.6406 99.9741Z" fill="#3F3D56"/>
<path id="Vector_23" d="M132.477 80.0416H106.992C106.685 80.0416 106.391 79.8586 106.173 79.533C105.956 79.2073 105.834 78.7656 105.834 78.305C105.834 77.8444 105.956 77.4027 106.173 77.077C106.391 76.7513 106.685 76.5684 106.992 76.5684H132.477C132.784 76.5684 133.079 76.7513 133.296 77.077C133.513 77.4027 133.635 77.8444 133.635 78.305C133.635 78.7656 133.513 79.2073 133.296 79.533C133.079 79.8586 132.784 80.0416 132.477 80.0416Z" fill="#CCCCCC"/>
<path id="Vector_24" d="M115.825 72.6609H106.992C106.685 72.6609 106.391 72.4779 106.173 72.1522C105.956 71.8266 105.834 71.3848 105.834 70.9242C105.834 70.4637 105.956 70.0219 106.173 69.6963C106.391 69.3706 106.685 69.1876 106.992 69.1876H115.825C116.132 69.1876 116.427 69.3706 116.644 69.6963C116.861 70.0219 116.983 70.4637 116.983 70.9242C116.983 71.3848 116.861 71.8266 116.644 72.1522C116.427 72.4779 116.132 72.6609 115.825 72.6609Z" fill="#CCCCCC"/>
<path id="Vector_25" d="M95.4505 82.1577C98.1694 82.1577 100.374 78.8533 100.374 74.777C100.374 70.7008 98.1694 67.3964 95.4505 67.3964C92.7315 67.3964 90.5273 70.7008 90.5273 74.777C90.5273 78.8533 92.7315 82.1577 95.4505 82.1577Z" fill="#40C1BD"/>
<path id="Vector_26" d="M135.032 63.4889H89.1315C88.4789 63.4903 87.8533 63.8795 87.3919 64.5713C86.9305 65.2631 86.6708 66.2009 86.6699 67.1792V82.3747C86.6708 83.353 86.9305 84.2909 87.3919 84.9826C87.8533 85.6744 88.4789 86.0637 89.1315 86.065H135.032C135.685 86.0637 136.31 85.6744 136.772 84.9826C137.233 84.2909 137.493 83.353 137.494 82.3747V67.1792C137.493 66.2009 137.233 65.2631 136.772 64.5713C136.31 63.8795 135.685 63.4903 135.032 63.4889ZM137.204 82.3747C137.203 83.238 136.974 84.0656 136.567 84.676C136.16 85.2864 135.608 85.6298 135.032 85.6309H89.1315C88.5557 85.6298 88.0036 85.2864 87.5964 84.676C87.1893 84.0656 86.9602 83.238 86.9595 82.3747V67.1792C86.9602 66.316 87.1893 65.4883 87.5964 64.8779C88.0036 64.2675 88.5557 63.9241 89.1315 63.923H135.032C135.608 63.9241 136.16 64.2675 136.567 64.8779C136.974 65.4883 137.203 66.316 137.204 67.1792V82.3747Z" fill="#3F3D56"/>
<path id="Vector_27" d="M137.203 69.5671C139.043 69.5671 140.534 67.3318 140.534 64.5743C140.534 61.8169 139.043 59.5815 137.203 59.5815C135.364 59.5815 133.873 61.8169 133.873 64.5743C133.873 67.3318 135.364 69.5671 137.203 69.5671Z" fill="#40C1BD"/>
<path id="Vector_28" d="M137.101 67.3822C137.088 67.362 137.077 67.3381 137.07 67.3118C137.062 67.2854 137.059 67.2572 137.059 67.2287V61.7028C137.059 61.6452 137.074 61.59 137.101 61.5493C137.128 61.5086 137.165 61.4857 137.203 61.4857C137.242 61.4857 137.279 61.5086 137.306 61.5493C137.333 61.59 137.348 61.6452 137.348 61.7028V67.2287C137.348 67.2716 137.34 67.3136 137.324 67.3493C137.308 67.385 137.285 67.4128 137.259 67.4292C137.232 67.4456 137.203 67.4499 137.175 67.4416C137.147 67.4332 137.121 67.4125 137.101 67.3822Z" fill="white"/>
<path id="Vector_29" d="M135.257 64.6192C135.237 64.5888 135.223 64.5502 135.218 64.5081C135.212 64.466 135.215 64.4223 135.226 64.3827C135.237 64.343 135.255 64.3091 135.279 64.2852C135.303 64.2614 135.331 64.2487 135.36 64.2487H139.046C139.084 64.2487 139.121 64.2715 139.148 64.3122C139.175 64.3529 139.19 64.4081 139.19 64.4657C139.19 64.5233 139.175 64.5785 139.148 64.6192C139.121 64.6599 139.084 64.6828 139.046 64.6828H135.36C135.341 64.6828 135.322 64.6772 135.304 64.6663C135.287 64.6554 135.271 64.6394 135.257 64.6192Z" fill="white"/>
<path id="Vector_30" d="M141.189 130.937H134.238C134.238 131.236 127.073 131.479 127.073 131.479C126.961 131.606 126.858 131.752 126.768 131.913C126.495 132.4 126.347 133.015 126.348 133.65V134.084C126.348 134.804 126.539 135.494 126.878 136.003C127.217 136.511 127.678 136.797 128.158 136.798H141.189C141.669 136.797 142.129 136.511 142.469 136.002C142.808 135.493 142.999 134.804 142.999 134.084V133.65C142.999 132.931 142.808 132.241 142.469 131.732C142.129 131.224 141.669 130.938 141.189 130.937Z" fill="#3F3D56"/>
<path id="Vector_31" d="M135.687 136.69H133.805V154.924H135.687V136.69Z" fill="#3F3D56"/>
<path id="Vector_32" d="M141.045 154.825C141.045 155.13 138.192 154.943 134.674 154.943C131.155 154.943 128.303 155.13 128.303 154.825C128.303 154.52 131.155 152.102 134.674 152.102C138.192 152.102 141.045 154.52 141.045 154.825Z" fill="#3F3D56"/>
<path id="Vector_33" d="M135.349 106.501C137.588 106.501 139.404 103.779 139.404 100.422C139.404 97.0654 137.588 94.3441 135.349 94.3441C133.11 94.3441 131.295 97.0654 131.295 100.422C131.295 103.779 133.11 106.501 135.349 106.501Z" fill="#1F1F1F"/>
<path id="Vector_34" d="M125.26 152.427L123.485 152.427L122.641 142.162L125.261 142.162L125.26 152.427Z" fill="#FFB8B8"/>
<path id="Vector_35" d="M122.216 151.666H125.64V154.898H120.061C120.061 154.041 120.288 153.219 120.692 152.613C121.096 152.007 121.644 151.666 122.216 151.666Z" fill="#40C1BD"/>
<path id="Vector_36" d="M122.489 150.942L120.795 150.145L122.039 139.971L124.539 141.147L122.489 150.942Z" fill="#FFB8B8"/>
<path id="Vector_37" d="M119.738 148.85L123.005 150.387L122.359 153.47L117.036 150.966C117.207 150.148 117.588 149.466 118.095 149.069C118.602 148.672 119.193 148.593 119.738 148.85Z" fill="#40C1BD"/>
<path id="Vector_38" d="M136.435 129.157C136.394 128.64 136.32 128.13 136.215 127.633L135.883 127.008L135.02 125.384L134.983 125.386C134.919 125.391 134.654 125.412 134.244 125.46H134.24C133.986 125.491 133.677 125.53 133.325 125.58C133.232 125.595 133.135 125.608 133.035 125.623V127.889H134.845C134.933 127.89 135.018 127.938 135.084 128.025C135.15 128.112 135.193 128.232 135.204 128.363C135.206 128.386 135.207 128.408 135.207 128.432C135.207 128.576 135.169 128.714 135.101 128.816C135.033 128.918 134.941 128.975 134.845 128.975H124.333C124.199 129.108 124.07 129.253 123.948 129.409C123.577 129.839 123.31 130.438 123.187 131.115C122.573 135.161 121.454 142.707 121.124 144.924C121.1 145.091 121.106 145.264 121.14 145.427C121.174 145.59 121.236 145.736 121.32 145.853C121.381 145.939 121.453 146.006 121.532 146.05L122.838 146.784C122.892 146.814 122.948 146.833 123.005 146.842C123.012 146.842 123.018 146.845 123.025 146.845C123.039 146.846 123.052 146.847 123.066 146.847C123.198 146.846 123.327 146.786 123.435 146.673C123.544 146.561 123.628 146.402 123.675 146.217L124.706 142.162L126.295 135.91L126.923 133.438C127.652 133.694 133.762 135.722 135.808 132.455C136.01 132.133 136.169 131.756 136.277 131.345C136.449 130.647 136.504 129.895 136.435 129.157Z" fill="#40C1BD"/>
<path id="Vector_39" d="M138.207 129.748C138.175 129.554 138.139 129.355 138.097 129.153L136.903 126.904L136.865 126.906C136.79 126.912 136.432 126.941 135.883 127.008C135.261 127.086 134.39 127.212 133.413 127.41C133.384 127.414 133.354 127.42 133.325 127.427C133.229 127.447 133.132 127.466 133.035 127.488V127.889H134.845C134.933 127.89 135.018 127.938 135.084 128.025C135.15 128.112 135.193 128.232 135.204 128.363C135.206 128.386 135.207 128.408 135.207 128.432C135.207 128.576 135.169 128.714 135.101 128.816C135.033 128.917 134.941 128.975 134.845 128.975H128.448C128.168 129.112 127.899 129.255 127.641 129.409C126.289 130.212 125.277 131.265 125.07 132.635C125 133.095 124.924 133.601 124.842 134.139C124.541 136.14 124.175 138.591 123.843 140.819V140.821C123.775 141.281 123.707 141.728 123.642 142.162C123.365 144.029 123.131 145.612 123.006 146.443C123.004 146.467 123.001 146.489 122.998 146.512V146.517C122.983 146.685 122.997 146.856 123.038 147.014L123.04 147.016V147.018C123.08 147.17 123.144 147.303 123.228 147.407C123.284 147.476 123.347 147.531 123.415 147.57L124.721 148.303C124.794 148.344 124.871 148.365 124.948 148.366C125.057 148.367 125.164 148.326 125.259 148.247C125.396 148.136 125.502 147.955 125.558 147.737L128.37 136.674L128.806 134.957C129.534 135.214 135.644 137.239 137.69 133.974C138.095 133.318 138.325 132.464 138.339 131.571C138.353 130.957 138.309 130.343 138.207 129.748Z" fill="#40C1BD"/>
<path id="Vector_40" d="M138.047 110.597C138.024 110.556 137.999 110.514 137.973 110.475C137.587 109.868 137.111 109.405 136.583 109.126C136.056 108.848 135.491 108.76 134.937 108.871C134.453 108.966 133.974 109.108 133.502 109.295C132.892 109.529 132.334 109.999 131.883 110.656C131.531 111.167 131.254 111.782 131.07 112.462C130.885 113.142 130.796 113.872 130.81 114.606C130.816 114.904 130.817 115.208 130.814 115.516C130.814 115.659 130.813 115.805 130.811 115.95H132.239C132.301 115.95 132.363 115.961 132.423 115.983C132.597 116.045 132.752 116.194 132.863 116.404C132.975 116.615 133.035 116.876 133.035 117.144V127.243C133.132 127.284 133.229 127.325 133.325 127.368C133.355 127.384 133.384 127.397 133.413 127.41C133.447 127.425 133.48 127.44 133.512 127.455C133.806 127.592 134.093 127.737 134.373 127.889H134.845C134.933 127.89 135.018 127.938 135.084 128.025C135.15 128.112 135.193 128.232 135.205 128.363C135.303 128.421 135.399 128.48 135.493 128.538C135.827 128.747 136.144 128.955 136.435 129.157C136.828 129.426 137.177 129.682 137.469 129.906C137.561 129.976 137.663 130.014 137.766 130.015C137.902 130.014 138.033 129.949 138.142 129.828C138.165 129.803 138.187 129.776 138.208 129.748C138.285 129.639 138.344 129.503 138.378 129.352C138.413 129.202 138.422 129.041 138.406 128.884C138.257 127.178 138.213 125.456 138.276 123.739C138.316 122.295 138.403 120.815 138.516 119.384C138.577 118.609 138.645 117.85 138.716 117.118C138.784 116.419 138.856 115.748 138.927 115.114C139.02 114.311 138.989 113.486 138.837 112.702C138.684 111.919 138.414 111.199 138.047 110.597Z" fill="#40C1BD"/>
<path id="Vector_41" d="M132.111 110.775C132.037 110.727 131.961 110.687 131.883 110.656C131.497 110.5 131.086 110.557 130.726 110.818C130.366 111.078 130.081 111.523 129.922 112.073L128.927 115.516L128.803 115.95H132.239C132.301 115.95 132.362 115.961 132.423 115.983L132.538 115.581L132.979 114.057C133.154 113.449 133.16 112.763 132.998 112.147C132.835 111.532 132.516 111.038 132.111 110.775Z" fill="#40C1BD"/>
<path id="Vector_42" d="M135.201 107.176C137.165 107.176 138.757 104.789 138.757 101.844C138.757 98.8998 137.165 96.5127 135.201 96.5127C133.237 96.5127 131.645 98.8998 131.645 101.844C131.645 104.789 133.237 107.176 135.201 107.176Z" fill="#FFB8B8"/>
<path id="Vector_43" d="M131.582 99.2249C133.267 100.767 135.166 101.705 137.132 101.966L136.547 100.915C136.973 101.152 137.421 101.285 137.874 101.311C138.328 101.3 138.803 101.039 139.06 100.479C139.175 100.201 139.243 99.8852 139.259 99.559C139.274 99.2328 139.237 98.9058 139.15 98.6057C138.972 98.0072 138.695 97.4871 138.344 97.0948C137.724 96.3585 136.991 95.864 136.212 95.6552C135.432 95.4464 134.631 95.5299 133.878 95.8982C133.362 96.1294 132.9 96.574 132.544 97.181C132.207 97.8045 131.558 98.36 131.731 99.1198L131.582 99.2249Z" fill="#1F1F1F"/>
<path id="Vector_44" d="M135.799 94.9222C134.678 93.2169 133.32 91.901 131.823 91.0671C130.862 90.5332 129.815 90.2033 128.81 90.5065C127.805 90.8097 126.855 91.852 126.575 93.3302C126.345 94.539 126.582 95.8405 126.938 96.9784C127.294 98.1162 127.769 99.1714 128.056 100.352C128.35 101.556 128.438 102.851 128.313 104.12C128.188 105.388 127.854 106.59 127.34 107.615C126.827 108.641 126.151 109.458 125.374 109.993C124.596 110.527 123.742 110.762 122.889 110.676C123.876 110.875 124.786 111.571 125.751 111.941C126.717 112.311 127.856 112.286 128.573 111.249C129.332 110.153 129.347 108.369 129.31 106.79C129.256 104.442 129.201 102.095 129.147 99.747C129.119 98.5498 129.095 97.3141 129.383 96.1966C129.671 95.0791 130.356 94.1006 131.155 94.1107C131.76 94.1184 132.296 94.6685 132.782 95.2109C133.268 95.7533 133.782 96.332 134.385 96.4127C134.988 96.4934 135.677 95.8241 135.632 94.9187L135.799 94.9222Z" fill="#1F1F1F"/>
<path id="Vector_45" d="M138.716 117.118L136.686 117.2L136.538 119.339L136.505 119.834L133.325 121.974L133.035 122.169V125.975L133.325 125.851L134.24 125.46H134.244L138.275 123.739L138.322 123.719C138.647 123.578 138.934 123.283 139.139 122.879C139.344 122.474 139.457 121.981 139.46 121.473L139.47 118.948L139.479 117.088L138.716 117.118Z" fill="#FFB8B8"/>
<path id="Vector_46" d="M139.377 112.889C139.349 112.228 139.148 111.611 138.817 111.172C138.487 110.733 138.053 110.51 137.612 110.55C137.171 110.591 136.759 110.892 136.467 111.388C136.174 111.884 136.025 112.534 136.052 113.195L136.273 118.614C136.279 118.756 136.306 118.895 136.352 119.02C136.398 119.146 136.462 119.254 136.538 119.339C136.661 119.475 136.812 119.542 136.964 119.528L138.516 119.384L138.987 119.341C139.073 119.334 139.157 119.302 139.234 119.246C139.311 119.19 139.38 119.11 139.436 119.013C139.448 118.992 139.46 118.971 139.471 118.948C139.563 118.763 139.608 118.535 139.598 118.305L139.377 112.889Z" fill="#40C1BD"/>
<path id="Vector_47" d="M133.513 127.455H133.326V127.427C133.231 127.447 133.134 127.466 133.037 127.488V127.889H134.375C134.094 127.737 133.807 127.593 133.513 127.455ZM133.513 127.455H133.326V127.427C133.231 127.447 133.134 127.466 133.037 127.488V127.889H134.375C134.094 127.737 133.807 127.593 133.513 127.455ZM134.847 127.455H133.326V117.144C133.326 116.791 133.249 116.448 133.107 116.166C132.965 115.884 132.766 115.679 132.54 115.581C132.443 115.537 132.342 115.515 132.241 115.516H119.354C119.066 115.516 118.79 115.688 118.586 115.993C118.382 116.299 118.268 116.712 118.268 117.144V127.781C118.268 128.213 118.382 128.627 118.586 128.932C118.789 129.237 119.066 129.409 119.354 129.409H134.847C135.007 129.408 135.162 129.319 135.281 129.159C135.401 128.998 135.476 128.777 135.494 128.538C135.497 128.503 135.498 128.468 135.498 128.432C135.498 128.173 135.429 127.925 135.307 127.742C135.185 127.559 135.02 127.456 134.847 127.455ZM135.209 128.432C135.209 128.576 135.171 128.714 135.103 128.816C135.035 128.917 134.943 128.975 134.847 128.975H119.354C119.142 128.975 118.94 128.849 118.791 128.625C118.641 128.401 118.557 128.097 118.557 127.781V117.144C118.557 116.827 118.641 116.524 118.791 116.3C118.94 116.076 119.142 115.95 119.354 115.95H132.241C132.302 115.95 132.364 115.961 132.424 115.983C132.599 116.045 132.754 116.194 132.865 116.404C132.976 116.615 133.037 116.875 133.037 117.144V127.889H134.847C134.935 127.89 135.02 127.938 135.086 128.025C135.152 128.112 135.195 128.232 135.206 128.363C135.207 128.386 135.209 128.408 135.209 128.432ZM133.513 127.455H133.326V127.427C133.231 127.447 133.134 127.466 133.037 127.488V127.889H134.375C134.094 127.737 133.807 127.593 133.513 127.455Z" fill="#3F3D56"/>
<path id="Vector_48" d="M125.797 123.765C126.276 123.765 126.665 123.182 126.665 122.463C126.665 121.743 126.276 121.16 125.797 121.16C125.317 121.16 124.928 121.743 124.928 122.463C124.928 123.182 125.317 123.765 125.797 123.765Z" fill="#40C1BD"/>
<path id="Vector_49" d="M48.1963 15.4925C48.1931 15.5917 48.1951 15.6911 48.2023 15.7898L43.6553 21.5107L42.2994 20.7747L41.291 23.6973L44.2555 25.8129L49.2264 17.4502C49.4774 17.5185 49.7363 17.4705 49.9687 17.3128C50.2011 17.1551 50.396 16.895 50.5274 16.5673C50.6588 16.2395 50.7206 15.8594 50.7044 15.4778C50.6882 15.0961 50.595 14.7308 50.437 14.4306C50.279 14.1303 50.0637 13.9092 49.8199 13.7968C49.5761 13.6844 49.3152 13.6859 49.072 13.8012C48.8287 13.9165 48.6147 14.1401 48.4582 14.4422C48.3018 14.7443 48.2105 15.1106 48.1963 15.4925Z" fill="#FFB8B8"/>
<path id="Vector_50" d="M42.0987 25.0992L37.7079 22.7232C37.3048 22.505 36.976 22.0558 36.7938 21.4742C36.6117 20.8927 36.5911 20.2264 36.7366 19.6221C36.8821 19.0178 37.1818 18.5249 37.5697 18.2518C37.9576 17.9787 38.402 17.9479 38.8051 18.166L43.1959 20.542C43.2624 20.578 43.3236 20.6332 43.3758 20.7047C43.4281 20.7761 43.4705 20.8623 43.5006 20.9582C43.5306 21.0542 43.5478 21.1581 43.551 21.2641C43.5543 21.37 43.5436 21.4758 43.5196 21.5756L42.7882 24.6138C42.7395 24.815 42.6396 24.9792 42.5104 25.0701C42.3811 25.1611 42.2331 25.1716 42.0987 25.0992Z" fill="#C4ECEB"/>
<path id="Vector_51" d="M38.8831 48.2461L40.3505 48.2458L41.0485 39.7603L38.8828 39.7605L38.8831 48.2461Z" fill="#FFB8B8"/>
<path id="Vector_52" d="M43.1797 50.2886L38.5678 50.2889L38.5677 47.6175L41.3977 47.6173C41.8703 47.6173 42.3235 47.8987 42.6577 48.3997C42.9919 48.9006 43.1797 49.5801 43.1797 50.2886Z" fill="#40C1BD"/>
<path id="Vector_53" d="M35.2559 45.4041L36.4562 46.6694L40.2829 40.3301L38.5113 38.4628L35.2559 45.4041Z" fill="#FFB8B8"/>
<path id="Vector_54" d="M37.8437 50.3467L34.071 46.37L35.0959 44.1847L37.411 46.6249C37.7976 47.0324 38.0603 47.6535 38.1415 48.3514C38.2227 49.0494 38.1156 49.7671 37.8437 50.3467Z" fill="#40C1BD"/>
<path id="Vector_55" d="M42.0938 32.9604C42.0938 32.9604 45.7558 32.3126 45.0985 35.8752C44.4413 39.4378 37.1172 42.5145 37.1172 42.5145L42.0938 32.9604Z" fill="#FFB8B8"/>
<path id="Vector_56" d="M39.5726 14.7823C41.1962 14.7823 42.5124 12.8091 42.5124 10.375C42.5124 7.94088 41.1962 5.96765 39.5726 5.96765C37.949 5.96765 36.6328 7.94088 36.6328 10.375C36.6328 12.8091 37.949 14.7823 39.5726 14.7823Z" fill="#FFB8B8"/>
<path id="Vector_57" d="M30.197 41.785C28.5242 38.8649 27.9389 34.3831 30.6065 30.6557C31.2654 29.7577 32.0114 29.015 32.819 28.4529L34.9691 19.4387C35.1924 18.4973 35.6019 17.6805 36.1428 17.0971C36.6838 16.5137 37.3306 16.1915 37.9969 16.1734C38.6439 16.1316 39.2836 16.391 39.8282 16.9161C40.3728 17.4412 40.7957 18.2062 41.0386 19.1061C41.3012 20.0215 41.3313 21.0494 41.1231 21.9957C40.4831 24.9839 39.6426 27.867 38.6145 30.6008L38.7256 31.9342L44.1601 32.6583L44.1094 32.7818C44.083 32.8463 41.4232 38.9216 38.0207 42.9542C36.8573 44.333 35.6542 44.9045 34.5188 44.9043C32.797 44.9041 31.231 43.59 30.197 41.785Z" fill="#40C1BD"/>
<path id="Vector_58" d="M29.6852 11.7577C30.2053 10.8286 30.4284 9.61327 30.6079 8.43053C30.8918 6.55914 31.1115 4.62406 31.7424 2.95405C32.3732 1.28407 33.5325 -0.0996865 34.8107 0.00564212C36.0817 0.110369 37.1092 1.64331 37.6546 3.38749C37.7866 3.31059 37.928 3.27614 38.0696 3.28637C38.2111 3.2966 38.3496 3.35128 38.4761 3.44687C38.8692 3.76959 39.0162 4.68688 38.689 5.14608C39.0331 4.90041 39.4079 4.76608 39.7889 4.75184C40.17 4.7376 40.5488 4.84376 40.9006 5.06342C41.3531 5.35221 41.7437 5.82252 42.0294 6.42259C42.3151 7.02267 42.4849 7.72927 42.52 8.46465C42.5337 8.76313 42.5064 9.06264 42.4397 9.34463C42.3731 9.62662 42.2685 9.88509 42.1325 10.104C41.5684 10.9745 40.7706 10.6743 40.0613 10.4525C39.3913 10.243 38.5752 10.1865 38.1978 11.1435C38.0491 11.5423 38.0074 12.0112 38.0814 12.4544C38.226 13.4098 38.6978 14.0752 39.1555 14.7121L39.2304 14.9206C37.6142 15.3931 35.8494 13.7384 35.4254 11.3531C35.0015 8.96772 35.9831 6.21589 37.5418 5.42015C37.4381 5.42499 37.3354 5.38822 37.2443 5.31364C37.1532 5.23905 37.077 5.12936 37.0237 4.99589C36.9704 4.86242 36.9418 4.71001 36.9408 4.55442C36.9399 4.39883 36.9667 4.2457 37.0185 4.11084C36.5871 3.74848 36.0988 3.56584 35.6043 3.58188C34.7992 3.66107 34.1024 4.52028 33.6834 5.55402C33.2644 6.58778 33.0747 7.78764 32.8825 8.96246C32.6903 10.1373 32.4823 11.3346 32.0343 12.3406C31.7239 13.0374 31.3093 13.6159 30.8234 14.0297C30.3375 14.4436 29.7938 14.6815 29.2357 14.7244C28.6775 14.7673 28.1205 14.6141 27.6089 14.2769C27.0973 13.9397 26.6453 13.428 26.2891 12.7824C26.852 13.1917 27.4889 13.3131 28.1023 13.128C28.7157 12.9429 29.2717 12.4616 29.6852 11.7577Z" fill="#1F1F1F"/>
<path id="Vector_59" d="M51.2771 23.7687C53.6372 23.7687 55.5504 20.9005 55.5504 17.3623C55.5504 13.8242 53.6372 10.9559 51.2771 10.9559C48.9171 10.9559 47.0039 13.8242 47.0039 17.3623C47.0039 20.9005 48.9171 23.7687 51.2771 23.7687Z" fill="#40C1BD"/>
<path id="Vector_60" d="M51.1462 20.9652C51.1289 20.9394 51.1152 20.9087 51.1059 20.8749C51.0965 20.8411 51.0918 20.8048 51.0918 20.7682V13.6778C51.0918 13.6039 51.1114 13.5331 51.1462 13.4809C51.1811 13.4286 51.2283 13.3993 51.2776 13.3993C51.3268 13.3993 51.3741 13.4286 51.4089 13.4809C51.4438 13.5331 51.4633 13.6039 51.4633 13.6778V20.7682C51.4633 20.8233 51.4524 20.8772 51.432 20.923C51.4116 20.9688 51.3826 21.0045 51.3487 21.0255C51.3147 21.0466 51.2774 21.0521 51.2413 21.0414C51.2053 21.0307 51.1722 21.0041 51.1462 20.9652Z" fill="white"/>
<path id="Vector_61" d="M48.781 17.42C48.755 17.3811 48.7373 17.3315 48.7301 17.2774C48.723 17.2234 48.7266 17.1674 48.7407 17.1165C48.7548 17.0656 48.7786 17.0221 48.8091 16.9915C48.8397 16.9609 48.8756 16.9446 48.9123 16.9446H53.6419C53.6911 16.9446 53.7384 16.9739 53.7732 17.0262C53.8081 17.0784 53.8276 17.1492 53.8276 17.2231C53.8276 17.297 53.8081 17.3678 53.7732 17.42C53.7384 17.4723 53.6911 17.5016 53.6419 17.5016H48.9123C48.8879 17.5017 48.8638 17.4945 48.8412 17.4805C48.8187 17.4665 48.7982 17.446 48.781 17.42Z" fill="white"/>
<path id="Vector_62" d="M48.3442 21.6473C48.3132 21.7351 48.2868 21.8263 48.2654 21.9203L42.5276 24.2013L41.509 22.6711L39.7676 24.6741L41.8512 28.478L48.7216 24.0758C48.9295 24.2975 49.1774 24.4191 49.4325 24.4245C49.6876 24.4298 49.9377 24.3186 50.1496 24.1056C50.3615 23.8926 50.5251 23.588 50.6187 23.2322C50.7123 22.8764 50.7314 22.4864 50.6735 22.1139C50.6156 21.7414 50.4835 21.4042 50.2946 21.1471C50.1058 20.8899 49.8692 20.7251 49.6164 20.6744C49.3635 20.6238 49.1064 20.6897 48.8791 20.8635C48.6519 21.0373 48.4653 21.3107 48.3442 21.6473Z" fill="#FFB8B8"/>
<path id="Vector_63" d="M40.1003 26.4573L36.7994 21.5087C36.649 21.2839 36.5296 21.0168 36.448 20.7227C36.3665 20.4287 36.3244 20.1134 36.3242 19.7949C36.324 19.4764 36.3657 19.161 36.447 18.8667C36.5282 18.5725 36.6473 18.3051 36.7975 18.0799C36.9477 17.8547 37.1261 17.6761 37.3224 17.5544C37.5187 17.4326 37.729 17.3701 37.9415 17.3704C38.1539 17.3706 38.3642 17.4337 38.5604 17.556C38.7565 17.6782 38.9347 17.8572 39.0846 18.0828L42.3854 23.0314C42.4355 23.1063 42.4751 23.1953 42.5022 23.2933C42.5293 23.3913 42.5432 23.4963 42.5432 23.6023C42.5432 23.7083 42.5293 23.8133 42.5022 23.9113C42.4751 24.0092 42.4355 24.0983 42.3854 24.1732L40.862 26.4573C40.7609 26.6084 40.6239 26.6933 40.4811 26.6933C40.3383 26.6933 40.2014 26.6084 40.1003 26.4573Z" fill="#C4ECEB"/>
</g>
<defs>
<clipPath id="clip0_346_2033">
<rect width="143" height="155" fill="white"/>
</clipPath>
</defs>
</svg>
