<svg width="32" height="32" viewBox="0 0 32 32" fill="none" xmlns="http://www.w3.org/2000/svg">
<g id="vuesax/bold/gallery-favorite">
<g id="gallery-favorite">
<path id="Vector" d="M11.9995 13.84C13.7521 13.84 15.1728 12.4192 15.1728 10.6666C15.1728 8.91404 13.7521 7.49329 11.9995 7.49329C10.2469 7.49329 8.82617 8.91404 8.82617 10.6666C8.82617 12.4192 10.2469 13.84 11.9995 13.84Z" fill="#40C1BD"/>
<path id="Vector_2" d="M27.9593 10.6666H27.3327V16.8133L27.1594 16.6666C26.1194 15.7733 24.4393 15.7733 23.3993 16.6666L17.8527 21.4266C16.8127 22.32 15.1327 22.32 14.0927 21.4266L13.6393 21.0533C12.6927 20.2266 11.186 20.1466 10.1193 20.8666L5.13268 24.2133C4.83935 23.4666 4.66602 22.6 4.66602 21.5866V10.4133C4.66602 6.65329 6.65268 4.66663 10.4127 4.66663H21.3327V4.03996C21.3327 3.50663 21.426 3.05329 21.6393 2.66663H10.4127C5.55935 2.66663 2.66602 5.55996 2.66602 10.4133V21.5866C2.66602 23.04 2.91935 24.3066 3.41268 25.3733C4.55935 27.9066 7.01268 29.3333 10.4127 29.3333H21.586C26.4394 29.3333 29.3327 26.44 29.3327 21.5866V10.36C28.946 10.5733 28.4927 10.6666 27.9593 10.6666Z" fill="#40C1BD"/>
<path id="Vector_3" d="M27.9606 1.33337H24.0407C22.8807 1.33337 22.0273 1.81337 21.6407 2.66671C21.4273 3.05337 21.334 3.50671 21.334 4.04004V4.66671V7.96004C21.334 9.65337 22.3473 10.6667 24.0407 10.6667H27.334H27.9606C28.494 10.6667 28.9473 10.5734 29.334 10.36C30.1873 9.97337 30.6673 9.12004 30.6673 7.96004V4.04004C30.6673 2.34671 29.654 1.33337 27.9606 1.33337ZM27.0673 8.28004C26.6406 8.53337 26.2273 8.66671 26.0007 8.66671C25.4007 8.66671 23.694 7.84004 23.1873 6.24004C23.1073 6.00004 23.0673 5.73337 23.0673 5.48004C23.0673 5.25337 23.094 5.02671 23.1607 4.81337C23.334 4.18671 23.7473 3.64004 24.4407 3.41337C24.7073 3.33337 24.9873 3.30671 25.2407 3.36004C25.5073 3.40004 25.7607 3.50671 25.9873 3.68004C26.414 3.34671 27.0007 3.24004 27.5607 3.41337C28.774 3.81337 29.1607 5.18671 28.814 6.24004C28.7607 6.40004 28.694 6.56004 28.614 6.70671C28.254 7.42671 27.6406 7.96004 27.0673 8.28004Z" fill="#40C1BD"/>
</g>
</g>
</svg>
