<svg width="24" height="24" viewBox="0 0 24 24" fill="none" xmlns="http://www.w3.org/2000/svg">
<g id="vuesax/bold/add-square">
<g id="add-square">
<path id="Vector" d="M7.80957 2.5H16.1904C17.9108 2.50008 19.2233 3.01135 20.1045 3.89355C20.9306 4.72074 21.4302 5.92613 21.4854 7.49121L21.4902 7.80859V16.1904C21.4901 17.9107 20.9792 19.2239 20.0967 20.1064C19.2141 20.9891 17.9003 21.5 16.1797 21.5H7.80957C6.08923 21.4999 4.77604 20.9891 3.89355 20.1055C3.01097 19.2217 2.5 17.9056 2.5 16.1797V7.80957C2.50009 6.08922 3.011 4.77611 3.89355 3.89355C4.77611 3.011 6.08922 2.50009 7.80957 2.5ZM12 6.75C11.3139 6.75 10.75 7.31386 10.75 8V10.75H8C7.31386 10.75 6.75 11.3139 6.75 12C6.75 12.6861 7.31386 13.25 8 13.25H10.75V16C10.75 16.6861 11.3139 17.25 12 17.25C12.6861 17.25 13.25 16.6861 13.25 16V13.25H16C16.6861 13.25 17.25 12.6861 17.25 12C17.25 11.3139 16.6861 10.75 16 10.75H13.25V8C13.25 7.31386 12.6861 6.75 12 6.75Z" fill="white" stroke="white"/>
</g>
</g>
</svg>
