<svg width="32" height="32" viewBox="0 0 32 32" fill="none" xmlns="http://www.w3.org/2000/svg">
<path d="M21.3333 17.2001V22.8001C21.3333 27.4667 19.4666 29.3334 14.8 29.3334H9.19996C4.53329 29.3334 2.66663 27.4667 2.66663 22.8001V17.2001C2.66663 12.5334 4.53329 10.6667 9.19996 10.6667H14.8C19.4666 10.6667 21.3333 12.5334 21.3333 17.2001Z" fill="#AEAEAE"/>
<path d="M22.8001 2.66675H17.2001C12.9612 2.66675 11.0434 4.21781 10.7266 7.98764C10.68 8.54259 11.135 9.00008 11.692 9.00008H14.8001C20.4001 9.00008 23.0001 11.6001 23.0001 17.2001V20.3082C23.0001 20.8651 23.4575 21.3202 24.0125 21.2735C27.7823 20.9568 29.3334 19.0389 29.3334 14.8001V9.20008C29.3334 4.53341 27.4667 2.66675 22.8001 2.66675Z" fill="#AEAEAE"/>
</svg>
