<svg width="80" height="80" viewBox="0 0 80 80" fill="none" xmlns="http://www.w3.org/2000/svg">
<g id="lets-icons:sad">
<g id="Group">
<path id="Vector" d="M40.0003 73.3333C58.4098 73.3333 73.3337 58.4095 73.3337 40C73.3337 21.5905 58.4098 6.66663 40.0003 6.66663C21.5908 6.66663 6.66699 21.5905 6.66699 40C6.66699 58.4095 21.5908 73.3333 40.0003 73.3333Z" stroke="#676767" stroke-width="2" stroke-linecap="round"/>
<path id="Vector_2" d="M26.2705 54.1466C27.9138 52.7233 30.0772 51.6966 32.4105 51.0233C34.8808 50.332 37.4353 49.9875 40.0005 50C42.6205 50 45.2338 50.3433 47.5905 51.0233C49.9238 51.6966 52.0905 52.7233 53.7305 54.1466" stroke="#676767" stroke-width="2" stroke-linecap="round"/>
<path id="Vector_3" d="M30.0007 37.5C32.3018 37.5 34.1673 35.6345 34.1673 33.3333C34.1673 31.0321 32.3018 29.1666 30.0007 29.1666C27.6995 29.1666 25.834 31.0321 25.834 33.3333C25.834 35.6345 27.6995 37.5 30.0007 37.5Z" fill="#676767" stroke="#676767" stroke-width="0.5" stroke-linecap="round"/>
<path id="Vector_4" d="M50.0007 37.5C52.3018 37.5 54.1673 35.6345 54.1673 33.3333C54.1673 31.0321 52.3018 29.1666 50.0007 29.1666C47.6995 29.1666 45.834 31.0321 45.834 33.3333C45.834 35.6345 47.6995 37.5 50.0007 37.5Z" fill="#676767" stroke="#676767" stroke-width="0.5" stroke-linecap="round"/>
</g>
</g>
</svg>
