<svg width="143" height="186" viewBox="0 0 143 186" fill="none" xmlns="http://www.w3.org/2000/svg">
<g id="Group 590">
<circle id="Ellipse 110" cx="71.5" cy="72.4585" r="71.5" fill="#F1F1F1"/>
<g id="Group 23">
<rect id="Rectangle 34" x="43.4505" y="71.0012" width="70" height="98" rx="7" transform="rotate(2.5 43.4505 71.0012)" fill="#EEEEEE" stroke="#999999" stroke-width="2"/>
<rect id="Rectangle 23" x="1.83579" y="65.1392" width="74" height="102" rx="9" transform="rotate(-7.5 1.83579 65.1392)" fill="#FAFAFA" stroke="#999999" stroke-width="2"/>
<path id="Rectangle 24" d="M4.00222 73.9317C3.42552 69.5512 6.50909 65.5326 10.8896 64.9559L66.4105 57.6464C70.791 57.0697 74.8095 60.1533 75.3862 64.5338L77.3441 79.4055L5.96011 88.8034L4.00222 73.9317Z" fill="#EEEEEE"/>
<rect id="Rectangle 25" x="89.8662" y="59.6016" width="3" height="10" rx="1.5" transform="rotate(82.5 89.8662 59.6016)" fill="#999999"/>
<rect id="Rectangle 26" x="62.4695" y="43.0358" width="3" height="10" rx="1.5" transform="rotate(-7.5 62.4695 43.0358)" fill="#999999"/>
<rect id="Rectangle 27" x="80.0471" y="45.7648" width="3" height="10" rx="1.5" transform="rotate(37.5 80.0471 45.7648)" fill="#999999"/>
<rect id="Rectangle 28" x="13.4221" y="91.8555" width="58" height="4" rx="2" transform="rotate(-7.5 13.4221 91.8555)" fill="#DCDCDC"/>
<rect id="Rectangle 30" x="16.0327" y="111.684" width="58" height="4" rx="2" transform="rotate(-7.5 16.0327 111.684)" fill="#DCDCDC"/>
<rect id="Rectangle 32" x="18.6433" y="131.513" width="58" height="4" rx="2" transform="rotate(-7.5 18.6433 131.513)" fill="#DCDCDC"/>
<rect id="Rectangle 29" x="14.4663" y="99.787" width="21" height="4" rx="2" transform="rotate(-7.5 14.4663 99.787)" fill="#EEEEEE"/>
<rect id="Rectangle 31" x="17.0769" y="119.616" width="21" height="4" rx="2" transform="rotate(-7.5 17.0769 119.616)" fill="#EEEEEE"/>
<rect id="Rectangle 33" x="19.6875" y="139.445" width="21" height="4" rx="2" transform="rotate(-7.5 19.6875 139.445)" fill="#EEEEEE"/>
</g>
</g>
</svg>
