<svg width="56" height="56" viewBox="0 0 56 56" fill="none" xmlns="http://www.w3.org/2000/svg">
<g clip-path="url(#clip0_966_692)">
<path d="M27.6521 16.7778L29.8873 22.0548L30.9704 24.6126L33.7356 24.8431L39.4273 25.327L35.0952 29.0831L32.9982 30.9035L33.6204 33.6226L34.9108 39.1761L30.0256 36.2265L27.6521 34.7518L25.2786 36.1805L20.3934 39.13L21.6839 33.5765L22.306 30.8574L20.2091 29.037L15.8769 25.2809L21.5686 24.797L24.3339 24.5665L25.4169 22.0087L27.6521 16.7778ZM27.6521 4.95654L21.1769 20.2344L4.60864 21.64L17.1904 32.5396L13.4113 48.7391L27.6521 40.1439L41.893 48.7391L38.1139 32.5396L50.6956 21.64L34.1273 20.2344L27.6521 4.95654Z" fill="#989898"/>
</g>
<defs>
<clipPath id="clip0_966_692">
<rect width="55.3043" height="55.3043" fill="white" transform="translate(0 0.347839)"/>
</clipPath>
</defs>
</svg>
